<svg xmlns="http://www.w3.org/2000/svg" width="320" height="80" viewBox="0 0 320 80"><!-- HILIT 로고 땡땡이. 마스크 전용이라 흰색(alpha, luminance 양쪽에서 통과)이며 실제 색은 CSS 토큰 color-dot 이 정한다. 상하좌우 이음매 없이 반복되도록 토러스 간격 배치. --><g fill="#fff"><circle cx="103.6" cy="12.1" r="1.4"/><circle cx="208.3" cy="5.8" r="1.4"/><circle cx="171.5" cy="29.3" r="1.4"/><circle cx="18.6" cy="40.6" r="1.4"/><circle cx="22.4" cy="7.3" r="1.4"/><circle cx="135.8" cy="66.1" r="1.4"/><circle cx="39.6" cy="17.9" r="1.4"/><circle cx="312.4" cy="3.7" r="1.4"/><circle cx="274.7" cy="23.2" r="1.4"/><circle cx="98.7" cy="65.3" r="1.4"/><circle cx="57.8" cy="46.5" r="1.4"/><circle cx="204.5" cy="29.8" r="1.4"/><circle cx="175.3" cy="5.0" r="1.4"/><circle cx="100.5" cy="46.8" r="1.4"/><circle cx="145.0" cy="24.0" r="1.4"/><circle cx="254.2" cy="55.9" r="1.4"/><circle cx="78.1" cy="46.0" r="1.4"/><circle cx="233.4" cy="23.0" r="1.4"/><circle cx="222.5" cy="47.5" r="1.4"/><circle cx="268.8" cy="75.6" r="1.4"/><circle cx="151.7" cy="53.1" r="1.4"/><circle cx="123.5" cy="53.5" r="1.4"/><circle cx="18.9" cy="61.5" r="1.4"/><circle cx="188.5" cy="21.0" r="1.4"/><circle cx="1.3" cy="33.5" r="1.4"/><circle cx="305.0" cy="55.2" r="1.4"/><circle cx="287.9" cy="62.4" r="1.4"/><circle cx="125.6" cy="31.9" r="1.4"/><circle cx="33.1" cy="50.7" r="1.4"/><circle cx="66.8" cy="13.0" r="1.4"/><circle cx="80.7" cy="27.8" r="1.4"/><circle cx="170.4" cy="62.3" r="1.4"/><circle cx="209.0" cy="64.0" r="1.4"/><circle cx="46.8" cy="66.1" r="1.4"/><circle cx="1.3" cy="63.9" r="1.4"/><circle cx="292.0" cy="35.5" r="1.4"/><circle cx="153.0" cy="75.3" r="1.4"/><circle cx="231.1" cy="1.6" r="1.4"/><circle cx="85.7" cy="10.3" r="1.4"/><circle cx="160.0" cy="14.2" r="1.4"/><circle cx="187.4" cy="42.3" r="1.4"/><circle cx="186.9" cy="71.4" r="1.4"/><circle cx="74.0" cy="71.8" r="1.4"/><circle cx="119.5" cy="76.5" r="1.4"/><circle cx="287.0" cy="2.4" r="1.4"/><circle cx="250.3" cy="6.3" r="1.4"/><circle cx="234.7" cy="62.2" r="1.4"/><circle cx="272.4" cy="49.5" r="1.4"/><circle cx="249.0" cy="31.1" r="1.4"/><circle cx="298.2" cy="18.7" r="1.4"/><circle cx="129.8" cy="11.0" r="1.4"/><circle cx="54.3" cy="28.9" r="1.4"/><circle cx="5.8" cy="15.0" r="1.4"/><circle cx="106.2" cy="29.7" r="1.4"/><circle cx="50.1" cy="3.8" r="1.4"/></g></svg>